<?xml version="1.0" encoding="UTF-8" standalone="no"?>
<!DOCTYPE svg PUBLIC "-//W3C//DTD SVG 1.1//EN"
 "http://www.w3.org/Graphics/SVG/1.1/DTD/svg11.dtd">
<!-- Generated by graphviz version 2.43.0 (0)
 -->
<!-- Title: snakemake_dag Pages: 1 -->
<svg width="1055pt" height="134pt"
 viewBox="0.00 0.00 1055.00 134.00" xmlns="http://www.w3.org/2000/svg" xmlns:xlink="http://www.w3.org/1999/xlink">
<g id="graph0" class="graph" transform="scale(1 1) rotate(0) translate(4 130)">
<title>snakemake_dag</title>
<polygon fill="white" stroke="transparent" points="-4,4 -4,-130 1051,-130 1051,4 -4,4"/>
<!-- 0 -->
<g id="node1" class="node">
<title>0</title>
<path fill="none" stroke="#d86e56" stroke-width="2" d="M1035,-63C1035,-63 1005,-63 1005,-63 999,-63 993,-57 993,-51 993,-51 993,-39 993,-39 993,-33 999,-27 1005,-27 1005,-27 1035,-27 1035,-27 1041,-27 1047,-33 1047,-39 1047,-39 1047,-51 1047,-51 1047,-57 1041,-63 1035,-63"/>
<text text-anchor="middle" x="1020" y="-42.5" font-family="sans" font-size="10.00">all</text>
</g>
<!-- 1 -->
<g id="node2" class="node">
<title>1</title>
<path fill="none" stroke="#70d856" stroke-width="2" d="M945,-63C945,-63 820,-63 820,-63 814,-63 808,-57 808,-51 808,-51 808,-39 808,-39 808,-33 814,-27 820,-27 820,-27 945,-27 945,-27 951,-27 957,-33 957,-39 957,-39 957,-51 957,-51 957,-57 951,-63 945,-63"/>
<text text-anchor="middle" x="882.5" y="-42.5" font-family="sans" font-size="10.00">merge_cluster_correlations</text>
</g>
<!-- 1&#45;&gt;0 -->
<g id="edge1" class="edge">
<title>1&#45;&gt;0</title>
<path fill="none" stroke="grey" stroke-width="2" d="M957.2,-45C966.09,-45 974.84,-45 982.84,-45"/>
<polygon fill="grey" stroke="grey" stroke-width="2" points="982.86,-48.5 992.86,-45 982.86,-41.5 982.86,-48.5"/>
</g>
<!-- 2 -->
<g id="node3" class="node">
<title>2</title>
<path fill="none" stroke="#5673d8" stroke-width="2" d="M760,-63C760,-63 711,-63 711,-63 705,-63 699,-57 699,-51 699,-51 699,-39 699,-39 699,-33 705,-27 711,-27 711,-27 760,-27 760,-27 766,-27 772,-33 772,-39 772,-39 772,-51 772,-51 772,-57 766,-63 760,-63"/>
<text text-anchor="middle" x="735.5" y="-42.5" font-family="sans" font-size="10.00">clusterlinks</text>
</g>
<!-- 2&#45;&gt;1 -->
<g id="edge2" class="edge">
<title>2&#45;&gt;1</title>
<path fill="none" stroke="grey" stroke-width="2" d="M772.34,-45C780.2,-45 788.84,-45 797.72,-45"/>
<polygon fill="grey" stroke="grey" stroke-width="2" points="797.8,-48.5 807.8,-45 797.8,-41.5 797.8,-48.5"/>
</g>
<!-- 3 -->
<g id="node4" class="node">
<title>3</title>
<path fill="none" stroke="#88d856" stroke-width="2" d="M641,-90C641,-90 610,-90 610,-90 604,-90 598,-84 598,-78 598,-78 598,-66 598,-66 598,-60 604,-54 610,-54 610,-54 641,-54 641,-54 647,-54 653,-60 653,-66 653,-66 653,-78 653,-78 653,-84 647,-90 641,-90"/>
<text text-anchor="middle" x="625.5" y="-69.5" font-family="sans" font-size="10.00">fasttree</text>
</g>
<!-- 3&#45;&gt;2 -->
<g id="edge3" class="edge">
<title>3&#45;&gt;2</title>
<path fill="none" stroke="grey" stroke-width="2" d="M653.2,-65.33C663.93,-62.64 676.62,-59.47 688.75,-56.44"/>
<polygon fill="grey" stroke="grey" stroke-width="2" points="689.89,-59.76 698.74,-53.94 688.19,-52.97 689.89,-59.76"/>
</g>
<!-- 4 -->
<g id="node5" class="node">
<title>4</title>
<path fill="none" stroke="#d88d56" stroke-width="2" d="M540,-90C540,-90 465,-90 465,-90 459,-90 453,-84 453,-78 453,-78 453,-66 453,-66 453,-60 459,-54 465,-54 465,-54 540,-54 540,-54 546,-54 552,-60 552,-66 552,-66 552,-78 552,-78 552,-84 546,-90 540,-90"/>
<text text-anchor="middle" x="502.5" y="-69.5" font-family="sans" font-size="10.00">filter_alignments</text>
</g>
<!-- 4&#45;&gt;3 -->
<g id="edge5" class="edge">
<title>4&#45;&gt;3</title>
<path fill="none" stroke="grey" stroke-width="2" d="M552.02,-72C563.88,-72 576.37,-72 587.59,-72"/>
<polygon fill="grey" stroke="grey" stroke-width="2" points="587.89,-75.5 597.89,-72 587.89,-68.5 587.89,-75.5"/>
</g>
<!-- 5 -->
<g id="node6" class="node">
<title>5</title>
<path fill="none" stroke="#d85656" stroke-width="2" d="M405,-90C405,-90 375,-90 375,-90 369,-90 363,-84 363,-78 363,-78 363,-66 363,-66 363,-60 369,-54 375,-54 375,-54 405,-54 405,-54 411,-54 417,-60 417,-66 417,-66 417,-78 417,-78 417,-84 411,-90 405,-90"/>
<text text-anchor="middle" x="390" y="-69.5" font-family="sans" font-size="10.00">trimal</text>
</g>
<!-- 5&#45;&gt;4 -->
<g id="edge6" class="edge">
<title>5&#45;&gt;4</title>
<path fill="none" stroke="grey" stroke-width="2" d="M417.19,-72C424.98,-72 433.84,-72 442.83,-72"/>
<polygon fill="grey" stroke="grey" stroke-width="2" points="442.98,-75.5 452.98,-72 442.98,-68.5 442.98,-75.5"/>
</g>
<!-- 6 -->
<g id="node7" class="node">
<title>6</title>
<path fill="none" stroke="#56d88a" stroke-width="2" d="M315,-90C315,-90 284,-90 284,-90 278,-90 272,-84 272,-78 272,-78 272,-66 272,-66 272,-60 278,-54 284,-54 284,-54 315,-54 315,-54 321,-54 327,-60 327,-66 327,-66 327,-78 327,-78 327,-84 321,-90 315,-90"/>
<text text-anchor="middle" x="299.5" y="-69.5" font-family="sans" font-size="10.00">clustalo</text>
</g>
<!-- 6&#45;&gt;5 -->
<g id="edge7" class="edge">
<title>6&#45;&gt;5</title>
<path fill="none" stroke="grey" stroke-width="2" d="M327.05,-72C335.09,-72 344.06,-72 352.62,-72"/>
<polygon fill="grey" stroke="grey" stroke-width="2" points="352.77,-75.5 362.77,-72 352.77,-68.5 352.77,-75.5"/>
</g>
<!-- 7 -->
<g id="node8" class="node">
<title>7</title>
<path fill="none" stroke="#56d8c1" stroke-width="2" d="M224,-90C224,-90 194,-90 194,-90 188,-90 182,-84 182,-78 182,-78 182,-66 182,-66 182,-60 188,-54 194,-54 194,-54 224,-54 224,-54 230,-54 236,-60 236,-66 236,-66 236,-78 236,-78 236,-84 230,-90 224,-90"/>
<text text-anchor="middle" x="209" y="-69.5" font-family="sans" font-size="10.00">scoring</text>
</g>
<!-- 7&#45;&gt;6 -->
<g id="edge8" class="edge">
<title>7&#45;&gt;6</title>
<path fill="none" stroke="grey" stroke-width="2" d="M236.07,-72C244.12,-72 253.14,-72 261.76,-72"/>
<polygon fill="grey" stroke="grey" stroke-width="2" points="262,-75.5 272,-72 262,-68.5 262,-75.5"/>
</g>
<!-- 8 -->
<g id="node9" class="node">
<title>8</title>
<path fill="none" stroke="#56d873" stroke-width="2" d="M134,-90C134,-90 104,-90 104,-90 98,-90 92,-84 92,-78 92,-78 92,-66 92,-66 92,-60 98,-54 104,-54 104,-54 134,-54 134,-54 140,-54 146,-60 146,-66 146,-66 146,-78 146,-78 146,-84 140,-90 134,-90"/>
<text text-anchor="middle" x="119" y="-69.5" font-family="sans" font-size="10.00">hmmer</text>
</g>
<!-- 8&#45;&gt;7 -->
<g id="edge9" class="edge">
<title>8&#45;&gt;7</title>
<path fill="none" stroke="grey" stroke-width="2" d="M146.4,-72C154.39,-72 163.31,-72 171.82,-72"/>
<polygon fill="grey" stroke="grey" stroke-width="2" points="171.92,-75.5 181.92,-72 171.92,-68.5 171.92,-75.5"/>
</g>
<!-- 9 -->
<g id="node10" class="node">
<title>9</title>
<path fill="none" stroke="#d8bc56" stroke-width="2" d="M44,-126C44,-126 12,-126 12,-126 6,-126 0,-120 0,-114 0,-114 0,-102 0,-102 0,-96 6,-90 12,-90 12,-90 44,-90 44,-90 50,-90 56,-96 56,-102 56,-102 56,-114 56,-114 56,-120 50,-126 44,-126"/>
<text text-anchor="middle" x="28" y="-105.5" font-family="sans" font-size="10.00">prodigal</text>
</g>
<!-- 9&#45;&gt;7 -->
<g id="edge11" class="edge">
<title>9&#45;&gt;7</title>
<path fill="none" stroke="grey" stroke-width="2" d="M56.36,-108.45C80.34,-108.24 115.95,-106.47 146,-99 154.86,-96.8 164.05,-93.44 172.56,-89.84"/>
<polygon fill="grey" stroke="grey" stroke-width="2" points="174.12,-92.98 181.83,-85.71 171.27,-86.58 174.12,-92.98"/>
</g>
<!-- 9&#45;&gt;8 -->
<g id="edge13" class="edge">
<title>9&#45;&gt;8</title>
<path fill="none" stroke="grey" stroke-width="2" d="M56.19,-97C64.52,-93.63 73.81,-89.87 82.61,-86.31"/>
<polygon fill="grey" stroke="grey" stroke-width="2" points="83.94,-89.55 91.89,-82.56 81.31,-83.06 83.94,-89.55"/>
</g>
<!-- 10 -->
<g id="node11" class="node">
<title>10</title>
<path fill="none" stroke="#56c1d8" stroke-width="2" d="M43,-63C43,-63 13,-63 13,-63 7,-63 1,-57 1,-51 1,-51 1,-39 1,-39 1,-33 7,-27 13,-27 13,-27 43,-27 43,-27 49,-27 55,-33 55,-39 55,-39 55,-51 55,-51 55,-57 49,-63 43,-63"/>
<text text-anchor="middle" x="28" y="-42.5" font-family="sans" font-size="10.00">hmmdb</text>
</g>
<!-- 10&#45;&gt;7 -->
<g id="edge10" class="edge">
<title>10&#45;&gt;7</title>
<path fill="none" stroke="grey" stroke-width="2" d="M55.34,-41.96C79.26,-39.92 115.38,-38.62 146,-45 154.94,-46.86 164.16,-50.08 172.68,-53.66"/>
<polygon fill="grey" stroke="grey" stroke-width="2" points="171.38,-56.92 181.94,-57.81 174.24,-50.53 171.38,-56.92"/>
</g>
<!-- 10&#45;&gt;8 -->
<g id="edge12" class="edge">
<title>10&#45;&gt;8</title>
<path fill="none" stroke="grey" stroke-width="2" d="M55.22,-52.95C63.73,-55.54 73.32,-58.45 82.4,-61.2"/>
<polygon fill="grey" stroke="grey" stroke-width="2" points="81.38,-64.55 91.97,-64.1 83.41,-57.85 81.38,-64.55"/>
</g>
<!-- 11 -->
<g id="node12" class="node">
<title>11</title>
<path fill="none" stroke="#59d856" stroke-width="2" d="M651,-36C651,-36 600,-36 600,-36 594,-36 588,-30 588,-24 588,-24 588,-12 588,-12 588,-6 594,0 600,0 600,0 651,0 651,0 657,0 663,-6 663,-12 663,-12 663,-24 663,-24 663,-30 657,-36 651,-36"/>
<text text-anchor="middle" x="625.5" y="-15.5" font-family="sans" font-size="10.00">ani_clusters</text>
</g>
<!-- 11&#45;&gt;2 -->
<g id="edge4" class="edge">
<title>11&#45;&gt;2</title>
<path fill="none" stroke="grey" stroke-width="2" d="M663.06,-27.14C671.33,-29.21 680.21,-31.43 688.81,-33.58"/>
<polygon fill="grey" stroke="grey" stroke-width="2" points="688.16,-37.02 698.71,-36.05 689.85,-30.23 688.16,-37.02"/>
</g>
<!-- 12 -->
<g id="node13" class="node">
<title>12</title>
<path fill="none" stroke="#d6d856" stroke-width="2" d="M517.5,-36C517.5,-36 487.5,-36 487.5,-36 481.5,-36 475.5,-30 475.5,-24 475.5,-24 475.5,-12 475.5,-12 475.5,-6 481.5,0 487.5,0 487.5,0 517.5,0 517.5,0 523.5,0 529.5,-6 529.5,-12 529.5,-12 529.5,-24 529.5,-24 529.5,-30 523.5,-36 517.5,-36"/>
<text text-anchor="middle" x="502.5" y="-15.5" font-family="sans" font-size="10.00">fastani</text>
</g>
<!-- 12&#45;&gt;11 -->
<g id="edge14" class="edge">
<title>12&#45;&gt;11</title>
<path fill="none" stroke="grey" stroke-width="2" d="M529.76,-18C543.67,-18 561.18,-18 577.36,-18"/>
<polygon fill="grey" stroke="grey" stroke-width="2" points="577.74,-21.5 587.74,-18 577.74,-14.5 577.74,-21.5"/>
</g>
<!-- 13 -->
<g id="node14" class="node">
<title>13</title>
<path fill="none" stroke="#bed856" stroke-width="2" d="M405,-36C405,-36 375,-36 375,-36 369,-36 363,-30 363,-24 363,-24 363,-12 363,-12 363,-6 369,0 375,0 375,0 405,0 405,0 411,0 417,-6 417,-12 417,-12 417,-24 417,-24 417,-30 411,-36 405,-36"/>
<text text-anchor="middle" x="390" y="-15.5" font-family="sans" font-size="10.00">preani</text>
</g>
<!-- 13&#45;&gt;12 -->
<g id="edge15" class="edge">
<title>13&#45;&gt;12</title>
<path fill="none" stroke="grey" stroke-width="2" d="M417.19,-18C431.4,-18 449.19,-18 464.76,-18"/>
<polygon fill="grey" stroke="grey" stroke-width="2" points="465.12,-21.5 475.12,-18 465.12,-14.5 465.12,-21.5"/>
</g>
</g>
</svg>
