<?xml version="1.0" encoding="UTF-8" standalone="no"?>
<!DOCTYPE svg PUBLIC "-//W3C//DTD SVG 1.1//EN"
 "http://www.w3.org/Graphics/SVG/1.1/DTD/svg11.dtd">
<!-- Generated by graphviz version 2.43.0 (0)
 -->
<!-- Title: snakemake_dag Pages: 1 -->
<svg width="516pt" height="67pt"
 viewBox="0.00 0.00 516.00 67.00" xmlns="http://www.w3.org/2000/svg" xmlns:xlink="http://www.w3.org/1999/xlink">
<g id="graph0" class="graph" transform="scale(1 1) rotate(0) translate(4 63)">
<title>snakemake_dag</title>
<polygon fill="white" stroke="transparent" points="-4,4 -4,-63 512,-63 512,4 -4,4"/>
<!-- 0 -->
<g id="node1" class="node">
<title>0</title>
<path fill="none" stroke="#56d87b" stroke-width="2" d="M496,-59C496,-59 466,-59 466,-59 460,-59 454,-53 454,-47 454,-47 454,-35 454,-35 454,-29 460,-23 466,-23 466,-23 496,-23 496,-23 502,-23 508,-29 508,-35 508,-35 508,-47 508,-47 508,-53 502,-59 496,-59"/>
<text text-anchor="middle" x="481" y="-38.5" font-family="sans" font-size="10.00">all</text>
</g>
<!-- 1 -->
<g id="node2" class="node">
<title>1</title>
<path fill="none" stroke="#56a2d8" stroke-width="2" d="M406,-59C406,-59 375,-59 375,-59 369,-59 363,-53 363,-47 363,-47 363,-35 363,-35 363,-29 369,-23 375,-23 375,-23 406,-23 406,-23 412,-23 418,-29 418,-35 418,-35 418,-47 418,-47 418,-53 412,-59 406,-59"/>
<text text-anchor="middle" x="390.5" y="-38.5" font-family="sans" font-size="10.00">fasttree</text>
</g>
<!-- 1&#45;&gt;0 -->
<g id="edge1" class="edge">
<title>1&#45;&gt;0</title>
<path fill="none" stroke="grey" stroke-width="2" d="M418.05,-41C426.09,-41 435.06,-41 443.62,-41"/>
<polygon fill="grey" stroke="grey" stroke-width="2" points="443.77,-44.5 453.77,-41 443.77,-37.5 443.77,-44.5"/>
</g>
<!-- 2 -->
<g id="node3" class="node">
<title>2</title>
<path fill="none" stroke="#c6d856" stroke-width="2" d="M315,-59C315,-59 284,-59 284,-59 278,-59 272,-53 272,-47 272,-47 272,-35 272,-35 272,-29 278,-23 284,-23 284,-23 315,-23 315,-23 321,-23 327,-29 327,-35 327,-35 327,-47 327,-47 327,-53 321,-59 315,-59"/>
<text text-anchor="middle" x="299.5" y="-38.5" font-family="sans" font-size="10.00">clustalo</text>
</g>
<!-- 2&#45;&gt;1 -->
<g id="edge2" class="edge">
<title>2&#45;&gt;1</title>
<path fill="none" stroke="grey" stroke-width="2" d="M327.2,-41C335.21,-41 344.14,-41 352.68,-41"/>
<polygon fill="grey" stroke="grey" stroke-width="2" points="352.82,-44.5 362.82,-41 352.82,-37.5 352.82,-44.5"/>
</g>
<!-- 3 -->
<g id="node4" class="node">
<title>3</title>
<path fill="none" stroke="#78d856" stroke-width="2" d="M224,-59C224,-59 194,-59 194,-59 188,-59 182,-53 182,-47 182,-47 182,-35 182,-35 182,-29 188,-23 194,-23 194,-23 224,-23 224,-23 230,-23 236,-29 236,-35 236,-35 236,-47 236,-47 236,-53 230,-59 224,-59"/>
<text text-anchor="middle" x="209" y="-38.5" font-family="sans" font-size="10.00">scoring</text>
</g>
<!-- 3&#45;&gt;2 -->
<g id="edge3" class="edge">
<title>3&#45;&gt;2</title>
<path fill="none" stroke="grey" stroke-width="2" d="M236.07,-41C244.12,-41 253.14,-41 261.76,-41"/>
<polygon fill="grey" stroke="grey" stroke-width="2" points="262,-44.5 272,-41 262,-37.5 262,-44.5"/>
</g>
<!-- 4 -->
<g id="node5" class="node">
<title>4</title>
<path fill="none" stroke="#d85656" stroke-width="2" d="M134,-36C134,-36 104,-36 104,-36 98,-36 92,-30 92,-24 92,-24 92,-12 92,-12 92,-6 98,0 104,0 104,0 134,0 134,0 140,0 146,-6 146,-12 146,-12 146,-24 146,-24 146,-30 140,-36 134,-36"/>
<text text-anchor="middle" x="119" y="-15.5" font-family="sans" font-size="10.00">hmmer</text>
</g>
<!-- 4&#45;&gt;3 -->
<g id="edge5" class="edge">
<title>4&#45;&gt;3</title>
<path fill="none" stroke="grey" stroke-width="2" d="M146.4,-24.9C154.48,-27.01 163.51,-29.37 172.1,-31.62"/>
<polygon fill="grey" stroke="grey" stroke-width="2" points="171.36,-35.04 181.92,-34.18 173.13,-28.27 171.36,-35.04"/>
</g>
<!-- 5 -->
<g id="node6" class="node">
<title>5</title>
<path fill="none" stroke="#56d8c9" stroke-width="2" d="M44,-59C44,-59 12,-59 12,-59 6,-59 0,-53 0,-47 0,-47 0,-35 0,-35 0,-29 6,-23 12,-23 12,-23 44,-23 44,-23 50,-23 56,-29 56,-35 56,-35 56,-47 56,-47 56,-53 50,-59 44,-59"/>
<text text-anchor="middle" x="28" y="-38.5" font-family="sans" font-size="10.00">prodigal</text>
</g>
<!-- 5&#45;&gt;3 -->
<g id="edge4" class="edge">
<title>5&#45;&gt;3</title>
<path fill="none" stroke="grey" stroke-width="2" d="M56.27,-43.11C67.35,-43.87 80.28,-44.63 92,-45 115.99,-45.76 122.01,-45.77 146,-45 154.35,-44.73 163.33,-44.26 171.79,-43.73"/>
<polygon fill="grey" stroke="grey" stroke-width="2" points="172.03,-47.22 181.77,-43.07 171.56,-40.24 172.03,-47.22"/>
</g>
<!-- 5&#45;&gt;4 -->
<g id="edge6" class="edge">
<title>5&#45;&gt;4</title>
<path fill="none" stroke="grey" stroke-width="2" d="M56.19,-33.97C64.34,-31.87 73.42,-29.52 82.05,-27.29"/>
<polygon fill="grey" stroke="grey" stroke-width="2" points="83.09,-30.64 91.89,-24.75 81.34,-23.86 83.09,-30.64"/>
</g>
</g>
</svg>
